<mxfile host="app.diagrams.net" modified="2021-12-07T13:07:20.961Z" agent="5.0 (Windows)" etag="76tzvurc3wWS-e_miD1j" version="15.9.1" type="github" pages="2">
  <diagram id="HawYGxOwZoSXSO_nWjz8" name="PuzzleGeneration">
    <mxGraphModel dx="582" dy="1602" grid="1" gridSize="10" guides="1" tooltips="1" connect="1" arrows="1" fold="1" page="1" pageScale="1" pageWidth="827" pageHeight="1169" math="0" shadow="0">
      <root>
        <mxCell id="0" />
        <mxCell id="1" parent="0" />
        <mxCell id="ShhlYQ8N25jWdA-QBe1b-22" value="&lt;p style=&quot;margin:0px;margin-top:4px;margin-left:5px;text-align:left;&quot;&gt;&lt;b&gt;sd&lt;/b&gt;  Interaction1&lt;/p&gt;" style="html=1;shape=mxgraph.sysml.package;overflow=fill;labelX=95;align=left;spacingLeft=5;verticalAlign=top;spacingTop=-3;" parent="1" vertex="1">
          <mxGeometry x="40" y="70" width="810" height="480" as="geometry" />
        </mxCell>
        <mxCell id="ShhlYQ8N25jWdA-QBe1b-4" value="_algorithmController:&lt;div&gt;AlgorithmController&lt;/div&gt;" style="shape=umlLifeline;perimeter=lifelinePerimeter;whiteSpace=wrap;html=1;container=1;collapsible=0;recursiveResize=0;outlineConnect=0;" parent="1" vertex="1">
          <mxGeometry x="220" y="120" width="150" height="400" as="geometry" />
        </mxCell>
        <mxCell id="ShhlYQ8N25jWdA-QBe1b-5" value="" style="html=1;points=[];perimeter=orthogonalPerimeter;" parent="ShhlYQ8N25jWdA-QBe1b-4" vertex="1">
          <mxGeometry x="70" y="70" width="10" height="300" as="geometry" />
        </mxCell>
        <mxCell id="ShhlYQ8N25jWdA-QBe1b-7" value="puzzle" style="html=1;verticalAlign=bottom;endArrow=open;dashed=1;endSize=8;exitX=0;exitY=1;rounded=0;exitDx=0;exitDy=0;exitPerimeter=0;entryX=-0.002;entryY=0.873;entryDx=0;entryDy=0;entryPerimeter=0;" parent="1" source="ShhlYQ8N25jWdA-QBe1b-5" target="ShhlYQ8N25jWdA-QBe1b-22" edge="1">
          <mxGeometry x="0.0351" relative="1" as="geometry">
            <mxPoint x="50" y="400" as="targetPoint" />
            <mxPoint as="offset" />
          </mxGeometry>
        </mxCell>
        <mxCell id="ShhlYQ8N25jWdA-QBe1b-6" value="&lt;div&gt;GetPuzzle&lt;/div&gt;&lt;div&gt;(size: Vector2Int,difficulty:Difficulty)&lt;/div&gt;" style="html=1;verticalAlign=bottom;endArrow=block;rounded=0;entryX=0.2;entryY=0;entryDx=0;entryDy=0;entryPerimeter=0;exitX=0;exitY=0.25;exitDx=0;exitDy=0;exitPerimeter=0;" parent="1" source="ShhlYQ8N25jWdA-QBe1b-22" target="ShhlYQ8N25jWdA-QBe1b-5" edge="1">
          <mxGeometry relative="1" as="geometry">
            <mxPoint x="50" y="190" as="sourcePoint" />
            <Array as="points">
              <mxPoint x="130" y="190" />
            </Array>
          </mxGeometry>
        </mxCell>
        <mxCell id="ShhlYQ8N25jWdA-QBe1b-9" value="&lt;div&gt;_generator:&lt;/div&gt;&lt;div&gt;Generator&lt;/div&gt;" style="shape=umlLifeline;perimeter=lifelinePerimeter;whiteSpace=wrap;html=1;container=1;collapsible=0;recursiveResize=0;outlineConnect=0;" parent="1" vertex="1">
          <mxGeometry x="400" y="120" width="130" height="400" as="geometry" />
        </mxCell>
        <mxCell id="ShhlYQ8N25jWdA-QBe1b-10" value="" style="html=1;points=[];perimeter=orthogonalPerimeter;" parent="ShhlYQ8N25jWdA-QBe1b-9" vertex="1">
          <mxGeometry x="60" y="80" width="10" height="40" as="geometry" />
        </mxCell>
        <mxCell id="ShhlYQ8N25jWdA-QBe1b-11" value="GeneratePuzzle(size)" style="html=1;verticalAlign=bottom;endArrow=block;entryX=0;entryY=0;rounded=0;" parent="1" source="ShhlYQ8N25jWdA-QBe1b-5" target="ShhlYQ8N25jWdA-QBe1b-10" edge="1">
          <mxGeometry relative="1" as="geometry">
            <mxPoint x="415" y="200" as="sourcePoint" />
          </mxGeometry>
        </mxCell>
        <mxCell id="ShhlYQ8N25jWdA-QBe1b-12" value="puzzle: Puzzle" style="html=1;verticalAlign=bottom;endArrow=open;dashed=1;endSize=8;exitX=0;exitY=0.95;rounded=0;" parent="1" source="ShhlYQ8N25jWdA-QBe1b-10" target="ShhlYQ8N25jWdA-QBe1b-5" edge="1">
          <mxGeometry relative="1" as="geometry">
            <mxPoint x="415" y="276" as="targetPoint" />
          </mxGeometry>
        </mxCell>
        <mxCell id="ShhlYQ8N25jWdA-QBe1b-13" value="&lt;div&gt;_puzzleSolver:&lt;/div&gt;&lt;div&gt;PuzzleSolver&lt;/div&gt;" style="shape=umlLifeline;perimeter=lifelinePerimeter;whiteSpace=wrap;html=1;container=1;collapsible=0;recursiveResize=0;outlineConnect=0;" parent="1" vertex="1">
          <mxGeometry x="560" y="120" width="100" height="400" as="geometry" />
        </mxCell>
        <mxCell id="ShhlYQ8N25jWdA-QBe1b-14" value="" style="html=1;points=[];perimeter=orthogonalPerimeter;" parent="ShhlYQ8N25jWdA-QBe1b-13" vertex="1">
          <mxGeometry x="45" y="160" width="10" height="50" as="geometry" />
        </mxCell>
        <mxCell id="ShhlYQ8N25jWdA-QBe1b-15" value="FindSolutionsWithEmptyWalls(puzzle)" style="html=1;verticalAlign=bottom;endArrow=block;entryX=0;entryY=0;rounded=0;" parent="1" source="ShhlYQ8N25jWdA-QBe1b-5" target="ShhlYQ8N25jWdA-QBe1b-14" edge="1">
          <mxGeometry relative="1" as="geometry">
            <mxPoint x="535" y="255" as="sourcePoint" />
          </mxGeometry>
        </mxCell>
        <mxCell id="ShhlYQ8N25jWdA-QBe1b-16" value="solutions: List&amp;lt;Solution&amp;gt;" style="html=1;verticalAlign=bottom;endArrow=open;dashed=1;endSize=8;exitX=0;exitY=0.95;rounded=0;" parent="1" source="ShhlYQ8N25jWdA-QBe1b-14" target="ShhlYQ8N25jWdA-QBe1b-5" edge="1">
          <mxGeometry relative="1" as="geometry">
            <mxPoint x="535" y="331" as="targetPoint" />
          </mxGeometry>
        </mxCell>
        <mxCell id="ShhlYQ8N25jWdA-QBe1b-17" value="&lt;div&gt;_wallNumberApplier:&lt;/div&gt;&lt;div&gt;WallNumberApplier&lt;br&gt;&lt;/div&gt;" style="shape=umlLifeline;perimeter=lifelinePerimeter;whiteSpace=wrap;html=1;container=1;collapsible=0;recursiveResize=0;outlineConnect=0;" parent="1" vertex="1">
          <mxGeometry x="700" y="120" width="130" height="400" as="geometry" />
        </mxCell>
        <mxCell id="ShhlYQ8N25jWdA-QBe1b-18" value="" style="html=1;points=[];perimeter=orthogonalPerimeter;" parent="ShhlYQ8N25jWdA-QBe1b-17" vertex="1">
          <mxGeometry x="60" y="260" width="10" height="60" as="geometry" />
        </mxCell>
        <mxCell id="ShhlYQ8N25jWdA-QBe1b-19" value="ApplyNumbersOnWalls(puzzle,solution,difficulty)" style="html=1;verticalAlign=bottom;endArrow=block;rounded=0;" parent="1" source="ShhlYQ8N25jWdA-QBe1b-5" target="ShhlYQ8N25jWdA-QBe1b-18" edge="1">
          <mxGeometry relative="1" as="geometry">
            <mxPoint x="690" y="330" as="sourcePoint" />
          </mxGeometry>
        </mxCell>
        <mxCell id="ShhlYQ8N25jWdA-QBe1b-20" value="return" style="html=1;verticalAlign=bottom;endArrow=open;dashed=1;endSize=8;exitX=0;exitY=0.95;rounded=0;" parent="1" source="ShhlYQ8N25jWdA-QBe1b-18" target="ShhlYQ8N25jWdA-QBe1b-5" edge="1">
          <mxGeometry relative="1" as="geometry">
            <mxPoint x="690" y="406" as="targetPoint" />
          </mxGeometry>
        </mxCell>
      </root>
    </mxGraphModel>
  </diagram>
  <diagram id="IiKYEeXC0ZLZGqZIkYaB" name="GameStateMachine">
    <mxGraphModel dx="1409" dy="2771" grid="1" gridSize="10" guides="1" tooltips="1" connect="1" arrows="1" fold="1" page="1" pageScale="1" pageWidth="827" pageHeight="1169" math="0" shadow="0">
      <root>
        <mxCell id="UYJdE5DR4Z86xC8_JvfH-0" />
        <mxCell id="UYJdE5DR4Z86xC8_JvfH-1" parent="UYJdE5DR4Z86xC8_JvfH-0" />
        <mxCell id="YwjbWvlAt9IeA6TG_HPO-6" style="edgeStyle=orthogonalEdgeStyle;rounded=0;orthogonalLoop=1;jettySize=auto;html=1;endSize=12;endArrow=open;endFill=0;fontSize=14;" edge="1" parent="UYJdE5DR4Z86xC8_JvfH-1" source="YwjbWvlAt9IeA6TG_HPO-1" target="YwjbWvlAt9IeA6TG_HPO-3">
          <mxGeometry relative="1" as="geometry" />
        </mxCell>
        <mxCell id="YwjbWvlAt9IeA6TG_HPO-1" value="" style="shape=ellipse;html=1;fillColor=#000000;fontSize=14;fontColor=#ffffff;" vertex="1" parent="UYJdE5DR4Z86xC8_JvfH-1">
          <mxGeometry x="-730" y="-750" width="40" height="40" as="geometry" />
        </mxCell>
        <mxCell id="YwjbWvlAt9IeA6TG_HPO-2" value="" style="shape=mxgraph.sysml.actFinal;html=1;verticalLabelPosition=bottom;labelBackgroundColor=#ffffff;verticalAlign=top;fontSize=14;" vertex="1" parent="UYJdE5DR4Z86xC8_JvfH-1">
          <mxGeometry x="-300" y="-520" width="40" height="40" as="geometry" />
        </mxCell>
        <mxCell id="YwjbWvlAt9IeA6TG_HPO-7" style="edgeStyle=orthogonalEdgeStyle;rounded=0;orthogonalLoop=1;jettySize=auto;html=1;endSize=12;endArrow=open;endFill=0;fontSize=14;" edge="1" parent="UYJdE5DR4Z86xC8_JvfH-1" source="YwjbWvlAt9IeA6TG_HPO-3" target="YwjbWvlAt9IeA6TG_HPO-4">
          <mxGeometry relative="1" as="geometry" />
        </mxCell>
        <mxCell id="YwjbWvlAt9IeA6TG_HPO-3" value="GameStart" style="shape=rect;rounded=1;html=1;whiteSpace=wrap;align=center;fontSize=14;" vertex="1" parent="UYJdE5DR4Z86xC8_JvfH-1">
          <mxGeometry x="-650" y="-750" width="100" height="40" as="geometry" />
        </mxCell>
        <mxCell id="YwjbWvlAt9IeA6TG_HPO-8" value="&lt;div&gt;Lámpa &lt;br&gt;&lt;/div&gt;&lt;div&gt;elhelyezés&lt;/div&gt;" style="edgeStyle=orthogonalEdgeStyle;rounded=0;orthogonalLoop=1;jettySize=auto;html=1;endSize=12;endArrow=open;endFill=0;fontSize=14;" edge="1" parent="UYJdE5DR4Z86xC8_JvfH-1" source="YwjbWvlAt9IeA6TG_HPO-4" target="YwjbWvlAt9IeA6TG_HPO-5">
          <mxGeometry x="-0.1429" y="-40" relative="1" as="geometry">
            <mxPoint as="offset" />
          </mxGeometry>
        </mxCell>
        <mxCell id="YwjbWvlAt9IeA6TG_HPO-4" value="ActionPhase" style="shape=rect;rounded=1;html=1;whiteSpace=wrap;align=center;fontSize=14;" vertex="1" parent="UYJdE5DR4Z86xC8_JvfH-1">
          <mxGeometry x="-510" y="-750" width="100" height="40" as="geometry" />
        </mxCell>
        <mxCell id="YwjbWvlAt9IeA6TG_HPO-5" value="EndTurnPhase" style="shape=rect;rounded=1;html=1;whiteSpace=wrap;align=center;fontSize=14;" vertex="1" parent="UYJdE5DR4Z86xC8_JvfH-1">
          <mxGeometry x="-510" y="-640" width="100" height="40" as="geometry" />
        </mxCell>
        <mxCell id="YwjbWvlAt9IeA6TG_HPO-10" value="" style="edgeStyle=elbowEdgeStyle;html=1;elbow=horizontal;align=right;verticalAlign=bottom;rounded=0;labelBackgroundColor=none;endArrow=open;endSize=12;fontSize=14;" edge="1" target="YwjbWvlAt9IeA6TG_HPO-14" parent="UYJdE5DR4Z86xC8_JvfH-1" source="YwjbWvlAt9IeA6TG_HPO-5">
          <mxGeometry relative="1" as="geometry">
            <mxPoint x="-460" y="-550" as="sourcePoint" />
            <mxPoint x="-300" y="-620" as="targetPoint" />
          </mxGeometry>
        </mxCell>
        <mxCell id="YwjbWvlAt9IeA6TG_HPO-11" value="Igen" style="edgeStyle=elbowEdgeStyle;html=1;elbow=vertical;align=right;endArrow=open;rounded=0;labelBackgroundColor=none;endSize=12;fontSize=14;" edge="1" source="YwjbWvlAt9IeA6TG_HPO-14" parent="UYJdE5DR4Z86xC8_JvfH-1" target="YwjbWvlAt9IeA6TG_HPO-2">
          <mxGeometry y="-20" relative="1" as="geometry">
            <mxPoint x="-460" y="-450" as="targetPoint" />
            <mxPoint x="-280" y="-600" as="sourcePoint" />
            <mxPoint as="offset" />
          </mxGeometry>
        </mxCell>
        <mxCell id="YwjbWvlAt9IeA6TG_HPO-12" value="Nem" style="edgeStyle=elbowEdgeStyle;html=1;elbow=vertical;align=left;endArrow=open;rounded=0;labelBackgroundColor=none;verticalAlign=bottom;endSize=12;startArrow=none;exitX=0.5;exitY=0;exitDx=0;exitDy=0;fontSize=14;" edge="1" source="YwjbWvlAt9IeA6TG_HPO-14" parent="UYJdE5DR4Z86xC8_JvfH-1" target="YwjbWvlAt9IeA6TG_HPO-4">
          <mxGeometry x="0.2727" y="-10" relative="1" as="geometry">
            <mxPoint x="-330" y="-450" as="targetPoint" />
            <mxPoint x="-280" y="-640" as="sourcePoint" />
            <Array as="points">
              <mxPoint x="-330" y="-730" />
              <mxPoint x="-320" y="-600" />
            </Array>
            <mxPoint as="offset" />
          </mxGeometry>
        </mxCell>
        <mxCell id="YwjbWvlAt9IeA6TG_HPO-14" value="A megoldás helyes?" style="rhombus;whiteSpace=wrap;html=1;fontSize=14;" vertex="1" parent="UYJdE5DR4Z86xC8_JvfH-1">
          <mxGeometry x="-335" y="-660" width="110" height="80" as="geometry" />
        </mxCell>
      </root>
    </mxGraphModel>
  </diagram>
</mxfile>
